<svg id="visual" viewBox="0 0 960 540" width="960" height="540" xmlns="http://www.w3.org/2000/svg" xmlns:xlink="http://www.w3.org/1999/xlink" version="1.1"><rect x="0" y="0" width="960" height="540" fill="#001220"></rect><path d="M0 360L22.8 356.2C45.7 352.3 91.3 344.7 137 348.2C182.7 351.7 228.3 366.3 274 364C319.7 361.7 365.3 342.3 411.2 342.8C457 343.3 503 363.7 548.8 366.5C594.7 369.3 640.3 354.7 686 351.7C731.7 348.7 777.3 357.3 823 360.3C868.7 363.3 914.3 360.7 937.2 359.3L960 358L960 541L937.2 541C914.3 541 868.7 541 823 541C777.3 541 731.7 541 686 541C640.3 541 594.7 541 548.8 541C503 541 457 541 411.2 541C365.3 541 319.7 541 274 541C228.3 541 182.7 541 137 541C91.3 541 45.7 541 22.8 541L0 541Z" fill="#6d69fa"></path><path d="M0 385L22.8 380.8C45.7 376.7 91.3 368.3 137 373.5C182.7 378.7 228.3 397.3 274 398.7C319.7 400 365.3 384 411.2 377.5C457 371 503 374 548.8 378C594.7 382 640.3 387 686 395.3C731.7 403.7 777.3 415.3 823 413.3C868.7 411.3 914.3 395.7 937.2 387.8L960 380L960 541L937.2 541C914.3 541 868.7 541 823 541C777.3 541 731.7 541 686 541C640.3 541 594.7 541 548.8 541C503 541 457 541 411.2 541C365.3 541 319.7 541 274 541C228.3 541 182.7 541 137 541C91.3 541 45.7 541 22.8 541L0 541Z" fill="#5d60ed"></path><path d="M0 453L22.8 450.8C45.7 448.7 91.3 444.3 137 444.2C182.7 444 228.3 448 274 445.8C319.7 443.7 365.3 435.3 411.2 426.5C457 417.7 503 408.3 548.8 410.3C594.7 412.3 640.3 425.7 686 432C731.7 438.3 777.3 437.7 823 435.3C868.7 433 914.3 429 937.2 427L960 425L960 541L937.2 541C914.3 541 868.7 541 823 541C777.3 541 731.7 541 686 541C640.3 541 594.7 541 548.8 541C503 541 457 541 411.2 541C365.3 541 319.7 541 274 541C228.3 541 182.7 541 137 541C91.3 541 45.7 541 22.8 541L0 541Z" fill="#4c57e0"></path><path d="M0 444L22.8 450.7C45.7 457.3 91.3 470.7 137 475.2C182.7 479.7 228.3 475.3 274 469C319.7 462.7 365.3 454.3 411.2 457.2C457 460 503 474 548.8 474C594.7 474 640.3 460 686 452C731.7 444 777.3 442 823 439.8C868.7 437.7 914.3 435.3 937.2 434.2L960 433L960 541L937.2 541C914.3 541 868.7 541 823 541C777.3 541 731.7 541 686 541C640.3 541 594.7 541 548.8 541C503 541 457 541 411.2 541C365.3 541 319.7 541 274 541C228.3 541 182.7 541 137 541C91.3 541 45.7 541 22.8 541L0 541Z" fill="#3a4ed3"></path><path d="M0 510L22.8 508.7C45.7 507.3 91.3 504.7 137 505.7C182.7 506.7 228.3 511.3 274 509.2C319.7 507 365.3 498 411.2 495.8C457 493.7 503 498.3 548.8 502C594.7 505.7 640.3 508.3 686 506.5C731.7 504.7 777.3 498.3 823 492C868.7 485.7 914.3 479.3 937.2 476.2L960 473L960 541L937.2 541C914.3 541 868.7 541 823 541C777.3 541 731.7 541 686 541C640.3 541 594.7 541 548.8 541C503 541 457 541 411.2 541C365.3 541 319.7 541 274 541C228.3 541 182.7 541 137 541C91.3 541 45.7 541 22.8 541L0 541Z" fill="#2446c7"></path></svg>